<?xml version="1.0" encoding="UTF-8" standalone="no"?>
<!DOCTYPE svg PUBLIC "-//W3C//DTD SVG 1.1//EN"
 "http://www.w3.org/Graphics/SVG/1.1/DTD/svg11.dtd">
<!-- Generated by graphviz version 2.40.1 (20161225.0304)
 -->
<!-- Title: state transitions Pages: 1 -->
<svg width="135pt" height="211pt"
 viewBox="0.00 0.00 135.22 211.00" xmlns="http://www.w3.org/2000/svg" xmlns:xlink="http://www.w3.org/1999/xlink">
<g id="graph0" class="graph" transform="scale(1 1) rotate(0) translate(4 207)">
<title>state transitions</title>
<polygon fill="#ffffff" stroke="transparent" points="-4,4 -4,-207 131.223,-207 131.223,4 -4,4"/>
<!-- initial -->
<g id="node1" class="node">
<title>initial</title>
<ellipse fill="#000000" stroke="#000000" stroke-width="2" cx="94" cy="-197.5" rx="5.5" ry="5.5"/>
</g>
<!-- GREEN -->
<g id="node2" class="node">
<title>GREEN</title>
<polygon fill="transparent" stroke="transparent" stroke-width="2" points="126,-164 62,-164 62,-128 126,-128 126,-164"/>
<text text-anchor="start" x="72.667" y="-142.2" font-family="Helvetica,sans-Serif" font-size="12.00" fill="#000000">GREEN</text>
<path fill="none" stroke="#000000" stroke-width="2" d="M74.3333,-129C74.3333,-129 113.6667,-129 113.6667,-129 119.3333,-129 125,-134.6667 125,-140.3333 125,-140.3333 125,-151.6667 125,-151.6667 125,-157.3333 119.3333,-163 113.6667,-163 113.6667,-163 74.3333,-163 74.3333,-163 68.6667,-163 63,-157.3333 63,-151.6667 63,-151.6667 63,-140.3333 63,-140.3333 63,-134.6667 68.6667,-129 74.3333,-129"/>
</g>
<!-- initial&#45;&gt;GREEN -->
<g id="edge1" class="edge">
<title>initial&#45;&gt;GREEN</title>
<path fill="none" stroke="#000000" d="M94,-191.9886C94,-187.6293 94,-181.1793 94,-174.4801"/>
<polygon fill="#000000" stroke="#000000" points="97.5001,-174.0122 94,-164.0122 90.5001,-174.0122 97.5001,-174.0122"/>
<text text-anchor="middle" x="95.3895" y="-175" font-family="Helvetica,sans-Serif" font-size="10.00" fill="#000000"> </text>
</g>
<!-- YELLOW -->
<g id="node3" class="node">
<title>YELLOW</title>
<polygon fill="transparent" stroke="transparent" stroke-width="2" points="72,-100 0,-100 0,-64 72,-64 72,-100"/>
<text text-anchor="start" x="10.9956" y="-78.2" font-family="Helvetica,sans-Serif" font-size="12.00" fill="#000000">YELLOW</text>
<path fill="none" stroke="#000000" stroke-width="2" d="M12.3333,-65C12.3333,-65 59.6667,-65 59.6667,-65 65.3333,-65 71,-70.6667 71,-76.3333 71,-76.3333 71,-87.6667 71,-87.6667 71,-93.3333 65.3333,-99 59.6667,-99 59.6667,-99 12.3333,-99 12.3333,-99 6.6667,-99 1,-93.3333 1,-87.6667 1,-87.6667 1,-76.3333 1,-76.3333 1,-70.6667 6.6667,-65 12.3333,-65"/>
</g>
<!-- GREEN&#45;&gt;YELLOW -->
<g id="edge2" class="edge">
<title>GREEN&#45;&gt;YELLOW</title>
<path fill="none" stroke="#000000" d="M77.5347,-127.8314C71.9501,-121.669 65.5975,-114.6593 59.5696,-108.0078"/>
<polygon fill="#000000" stroke="#000000" points="62.0166,-105.4959 52.7079,-100.4363 56.8297,-110.1965 62.0166,-105.4959"/>
<text text-anchor="start" x="71" y="-111" font-family="Helvetica,sans-Serif" font-size="10.00" fill="#000000">time &#160;&#160;</text>
</g>
<!-- RED -->
<g id="node4" class="node">
<title>RED</title>
<polygon fill="transparent" stroke="transparent" stroke-width="2" points="104,-36 48,-36 48,0 104,0 104,-36"/>
<text text-anchor="start" x="63.3358" y="-14.2" font-family="Helvetica,sans-Serif" font-size="12.00" fill="#000000">RED</text>
<path fill="none" stroke="#000000" stroke-width="2" d="M60.3333,-1C60.3333,-1 91.6667,-1 91.6667,-1 97.3333,-1 103,-6.6667 103,-12.3333 103,-12.3333 103,-23.6667 103,-23.6667 103,-29.3333 97.3333,-35 91.6667,-35 91.6667,-35 60.3333,-35 60.3333,-35 54.6667,-35 49,-29.3333 49,-23.6667 49,-23.6667 49,-12.3333 49,-12.3333 49,-6.6667 54.6667,-1 60.3333,-1"/>
</g>
<!-- YELLOW&#45;&gt;RED -->
<g id="edge3" class="edge">
<title>YELLOW&#45;&gt;RED</title>
<path fill="none" stroke="#000000" d="M47.3554,-63.8314C50.9557,-58.0709 55.0187,-51.57 58.9291,-45.3134"/>
<polygon fill="#000000" stroke="#000000" points="62.1453,-46.7713 64.4773,-36.4363 56.2093,-43.0613 62.1453,-46.7713"/>
<text text-anchor="start" x="60" y="-47" font-family="Helvetica,sans-Serif" font-size="10.00" fill="#000000">time &#160;&#160;</text>
</g>
<!-- RED&#45;&gt;GREEN -->
<g id="edge4" class="edge">
<title>RED&#45;&gt;GREEN</title>
<path fill="none" stroke="#000000" d="M88.5467,-36.2642C89.8833,-38.7833 91.0861,-41.3999 92,-44 95.8624,-54.9885 101.5889,-86.9716 99.6804,-117.6036"/>
<polygon fill="#000000" stroke="#000000" points="96.1633,-117.6277 98.7268,-127.9077 103.1335,-118.2729 96.1633,-117.6277"/>
<text text-anchor="start" x="100" y="-79" font-family="Helvetica,sans-Serif" font-size="10.00" fill="#000000">time &#160;&#160;</text>
</g>
</g>
</svg>
