<?xml version="1.0" encoding="UTF-8" standalone="no"?>
<!DOCTYPE svg PUBLIC "-//W3C//DTD SVG 1.1//EN"
 "http://www.w3.org/Graphics/SVG/1.1/DTD/svg11.dtd">
<!-- Generated by graphviz version 2.40.1 (20161225.0304)
 -->
<!-- Title: state transitions Pages: 1 -->
<svg width="80pt" height="147pt"
 viewBox="0.00 0.00 80.00 147.00" xmlns="http://www.w3.org/2000/svg" xmlns:xlink="http://www.w3.org/1999/xlink">
<g id="graph0" class="graph" transform="scale(1 1) rotate(0) translate(4 143)">
<title>state transitions</title>
<polygon fill="#ffffff" stroke="transparent" points="-4,4 -4,-143 76,-143 76,4 -4,4"/>
<!-- initial -->
<g id="node1" class="node">
<title>initial</title>
<ellipse fill="#000000" stroke="#000000" stroke-width="2" cx="36" cy="-133.5" rx="5.5" ry="5.5"/>
</g>
<!-- GREEN -->
<g id="node2" class="node">
<title>GREEN</title>
<polygon fill="transparent" stroke="transparent" stroke-width="2" points="68,-100 4,-100 4,-64 68,-64 68,-100"/>
<text text-anchor="start" x="14.667" y="-78.2" font-family="Helvetica,sans-Serif" font-size="12.00" fill="#000000">GREEN</text>
<path fill="none" stroke="#000000" stroke-width="2" d="M16.3333,-65C16.3333,-65 55.6667,-65 55.6667,-65 61.3333,-65 67,-70.6667 67,-76.3333 67,-76.3333 67,-87.6667 67,-87.6667 67,-93.3333 61.3333,-99 55.6667,-99 55.6667,-99 16.3333,-99 16.3333,-99 10.6667,-99 5,-93.3333 5,-87.6667 5,-87.6667 5,-76.3333 5,-76.3333 5,-70.6667 10.6667,-65 16.3333,-65"/>
</g>
<!-- initial&#45;&gt;GREEN -->
<g id="edge1" class="edge">
<title>initial&#45;&gt;GREEN</title>
<path fill="none" stroke="#000000" d="M36,-127.9886C36,-123.6293 36,-117.1793 36,-110.4801"/>
<polygon fill="#000000" stroke="#000000" points="39.5001,-110.0122 36,-100.0122 32.5001,-110.0122 39.5001,-110.0122"/>
<text text-anchor="middle" x="37.3895" y="-111" font-family="Helvetica,sans-Serif" font-size="10.00" fill="#000000"> </text>
</g>
<!-- YELLOW -->
<g id="node3" class="node">
<title>YELLOW</title>
<polygon fill="transparent" stroke="transparent" stroke-width="2" points="72,-36 0,-36 0,0 72,0 72,-36"/>
<text text-anchor="start" x="10.9956" y="-14.2" font-family="Helvetica,sans-Serif" font-size="12.00" fill="#000000">YELLOW</text>
<path fill="none" stroke="#000000" stroke-width="2" d="M12.3333,-1C12.3333,-1 59.6667,-1 59.6667,-1 65.3333,-1 71,-6.6667 71,-12.3333 71,-12.3333 71,-23.6667 71,-23.6667 71,-29.3333 65.3333,-35 59.6667,-35 59.6667,-35 12.3333,-35 12.3333,-35 6.6667,-35 1,-29.3333 1,-23.6667 1,-23.6667 1,-12.3333 1,-12.3333 1,-6.6667 6.6667,-1 12.3333,-1"/>
</g>
<!-- GREEN&#45;&gt;YELLOW -->
<g id="edge2" class="edge">
<title>GREEN&#45;&gt;YELLOW</title>
<path fill="none" stroke="#000000" d="M36,-63.8314C36,-58.4728 36,-52.4735 36,-46.6262"/>
<polygon fill="#000000" stroke="#000000" points="39.5001,-46.4363 36,-36.4363 32.5001,-46.4363 39.5001,-46.4363"/>
<text text-anchor="start" x="36" y="-47" font-family="Helvetica,sans-Serif" font-size="10.00" fill="#000000">time &#160;&#160;</text>
</g>
</g>
</svg>
